<svg xmlns="http://www.w3.org/2000/svg" viewBox="0 0 128 128" role="img" aria-labelledby="title desc">
  <title id="title">AdaLabs Terminal icon</title>
  <desc id="desc">A pixel-glyph ADA wordmark on a pure black terminal background.</desc>
  <rect width="128" height="128" rx="14" fill="#000000"/>
  <path d="M18 18H110V110H18V18Z" fill="none" stroke="#141A22" stroke-width="2"/>
  <path d="M28 32H36V40H28V32ZM36 24H44V32H36V24ZM44 24H52V32H44V24ZM52 32H60V40H52V32ZM28 40H36V48H28V40ZM36 40H44V48H36V40ZM44 40H52V48H44V40ZM52 40H60V48H52V40ZM28 48H36V56H28V48ZM52 48H60V56H52V48Z" fill="#F4F7FA"/>
  <path d="M28 68H36V76H28V68ZM36 60H44V68H36V60ZM44 60H52V68H44V60ZM52 68H60V76H52V68ZM28 76H36V84H28V76ZM36 76H44V84H36V76ZM44 76H52V84H44V76ZM52 76H60V84H52V76ZM28 84H36V92H28V84ZM52 84H60V92H52V84Z" fill="#7DCFFF"/>
  <path d="M70 24H78V32H70V24ZM78 24H86V32H78V24ZM86 32H94V40H86V32ZM94 40H102V48H94V40ZM94 48H102V56H94V48ZM86 56H94V64H86V56ZM78 56H86V64H78V56ZM70 56H78V64H70V56ZM70 32H78V40H70V32ZM70 40H78V48H70V40ZM70 48H78V56H70V48Z" fill="#BB9AF7"/>
  <path d="M70 68H78V76H70V68ZM78 60H86V68H78V60ZM86 60H94V68H86V60ZM94 68H102V76H94V68ZM70 76H78V84H70V76ZM78 76H86V84H78V76ZM86 76H94V84H86V76ZM94 76H102V84H94V76ZM70 84H78V92H70V84ZM94 84H102V92H94V84Z" fill="#F4F7FA"/>
  <path d="M22 102H34V106H22V102ZM38 102H50V106H38V102ZM54 102H66V106H54V102ZM70 102H82V106H70V102ZM86 102H98V106H86V102Z" fill="#7DCFFF"/>
</svg>
